HIERARCHY
ROOT Root
{
	OFFSET 0.00000 0.00000 0.00000
	CHANNELS 6 Xposition Yposition Zposition Zrotation Xrotation Yrotation
	JOINT Hip
	{
		OFFSET 0 0 0	
		CHANNELS 3 Zrotation Xrotation Yrotation
		JOINT Tummy
		{
			OFFSET 0 0.04 0	
			CHANNELS 3 Zrotation Xrotation Yrotation
			JOINT ChestBottom
			{
				OFFSET 0 0.194 0	
				CHANNELS 3 Zrotation Xrotation Yrotation
				JOINT ChestTop
				{
					OFFSET 0 0.166 0	
					CHANNELS 3 Zrotation Xrotation Yrotation
					JOINT LeftCollar
					{
						OFFSET 0 0.1 0	
						CHANNELS 3 Zrotation Xrotation Yrotation
						JOINT LeftUpperArm
						{
							OFFSET 0.156 -0.02 0.03	
							CHANNELS 3 Zrotation Xrotation Yrotation
							JOINT LeftForeArm
							{
								OFFSET 0.035 -0.27 -0.01	
								CHANNELS 3 Zrotation Xrotation Yrotation
								JOINT LeftHand
								{
									OFFSET 0.01 -0.27 0.01	
									CHANNELS 3 Zrotation Xrotation Yrotation
									End Site
									{
										OFFSET 0 -0.15 0
									}
								}
							}
						}
					}
					JOINT RightCollar
					{
						OFFSET 0 0.1 0	
						CHANNELS 3 Zrotation Xrotation Yrotation
						JOINT RightUpperArm
						{
							OFFSET -0.156 -0.02 0.03	
							CHANNELS 3 Zrotation Xrotation Yrotation
							JOINT RightForeArm
							{
								OFFSET -0.035 -0.27 -0.01	
								CHANNELS 3 Zrotation Xrotation Yrotation
								JOINT RightHand
								{
									OFFSET -0.01 -0.27 0.01	
									CHANNELS 3 Zrotation Xrotation Yrotation
									End Site
									{
										OFFSET 0 -0.15 0
									}
								}
							}
						}
					}
					JOINT Neck
					{
						OFFSET 0 0.1 0	
						CHANNELS 3 Zrotation Xrotation Yrotation
						JOINT Head
						{
							OFFSET 0 0.127 0.03	
							CHANNELS 3 Zrotation Xrotation Yrotation
							End Site
							{
								OFFSET 0 0.127 0.03
							}
						}
					}
				}
			}
		}
	}
	JOINT LeftHip
	{
		OFFSET 0 0 0	
		CHANNELS 3 Zrotation Xrotation Yrotation
		JOINT LeftThigh
		{
			OFFSET 0.088 -0.06 0	
			CHANNELS 3 Zrotation Xrotation Yrotation
			JOINT LeftLowerLeg
			{
				OFFSET 0 -0.39 0.02	
				CHANNELS 3 Zrotation Xrotation Yrotation
				JOINT LeftFootTop
				{
					OFFSET 0 -0.43 -0.02	
					CHANNELS 3 Zrotation Xrotation Yrotation
					JOINT LeftFootFront
					{
						OFFSET 0 -0.07 0.085	
						CHANNELS 3 Zrotation Xrotation Yrotation
						End Site
						{
							OFFSET 0 -0.005 0.09
						}
					}
				}
				JOINT LeftHeel
				{
					OFFSET 0 -0.43 -0.02	
					CHANNELS 3 Zrotation Xrotation Yrotation
					End Site
					{
						OFFSET 0 -0.075 -0.05
					}
				}
			}
		}
	}
	JOINT RightHip
	{
		OFFSET 0 0 0	
		CHANNELS 3 Zrotation Xrotation Yrotation
		JOINT RightThigh
		{
			OFFSET -0.088 -0.06 0	
			CHANNELS 3 Zrotation Xrotation Yrotation
			JOINT RightLowerLeg
			{
				OFFSET 0 -0.39 0.02	
				CHANNELS 3 Zrotation Xrotation Yrotation
				JOINT RightFootTop
				{
					OFFSET 0 -0.43 -0.02	
					CHANNELS 3 Zrotation Xrotation Yrotation
					JOINT RightFootFront
					{
						OFFSET 0 -0.07 0.085	
						CHANNELS 3 Zrotation Xrotation Yrotation
						End Site
						{
							OFFSET 0 -0.005 0.09
						}
					}
				}
				JOINT RightHeel
				{
					OFFSET 0 -0.43 -0.02	
					CHANNELS 3 Zrotation Xrotation Yrotation
					End Site
					{
						OFFSET 0 -0.075 -0.05
					}
				}
			}
		}
	}
}
MOTION
Frames: 21
Frame Time: 0.05
0 0.95685 0 -0 0 -0 0.15353 3.2288 -5.0414 -0.018136 1.3163 0.34172 -0.018136 1.3163 0.34172 -0.014706 1.1057 0.28701 -0 0 -0 -0.37364 -3.5052 0.17647 -2.9726 -4.4114 8.2426 -0 0 1.1673e-08 -0 0 -0 -0.86253 -4.3758 5.029 2.7733 -4.6782 -2.4871 0 0 -3.3351e-09 -0 0 -0 -0 0 -0 0.15353 3.2288 -5.0414 -0.051626 -2.127 -0.76816 0.1924 -0.56055 -1.0718 -0 0 -0 0 0 -1.276e-08 -0 0 -0 0.15353 3.2288 -5.0414 -0.737 -4.2591 2.3002 0.31383 -0.18255 2.4497 -0 0 -0 0 0 -2.5013e-09 -0 0 -0 
0 0.95684 0 -0 0 -0 0.16843 3.2867 -5.0508 -0.015994 1.3006 0.33389 -0.015994 1.3006 0.33389 -0.012925 1.0925 0.28044 -0 0 -0 -0.37053 -3.4791 0.21288 -2.7685 -4.3961 7.8248 0.010235 0.0048998 0.010018 -0 0 -0 -0.85781 -4.3446 5.0608 2.7663 -4.7073 -2.4791 -0.015821 -0.015463 -0.0052919 -0 0 -0 -0 0 -0 0.16843 3.2867 -5.0508 -0.063873 -2.1878 -0.76474 0.19149 -0.57104 -1.0688 -0 0 -0 -8.3376e-10 1.3977e-18 -1.921e-07 -0 0 -0 0.16843 3.2867 -5.0508 -0.74874 -4.3129 2.2994 0.30763 -0.19052 2.4438 -0 0 -0 0 0 -2.0844e-09 -0 0 -0 
0 0.95681 0 -0 0 -0 0.19063 3.3501 -5.056 -0.01349 1.282 0.3228 -0.01349 1.282 0.3228 -0.010846 1.0769 0.27113 -0 0 -0 -0.35814 -3.4437 0.25066 -2.5613 -4.3771 7.4322 0.021036 -0.043246 -0.02932 -0 0 -0 -0.83 -4.2507 5.1163 2.7186 -4.795 -2.5283 -0.011981 -0.015026 0.037147 -0 0 -0 -0 0 -0 0.19063 3.3501 -5.056 -0.070425 -2.2642 -0.75788 0.1762 -0.55917 -1.0691 -0 0 -0 -8.3376e-10 -1.2184e-18 1.6745e-07 -0 0 -0 0.19063 3.3501 -5.056 -0.76301 -4.3807 2.2911 0.3032 -0.18467 2.4439 -0 0 -0 -0 0 2.5013e-09 -0 0 -0 
0 0.95678 0 -0 0 -0 0.21548 3.3985 -5.0495 -0.0071155 1.2762 0.30526 -0.0071154 1.2762 0.30526 -0.0055198 1.072 0.2564 -0 0 -0 -0.36147 -3.4358 0.28499 -2.2989 -4.4348 6.9945 -0.020408 -0.0067061 0.010426 -0 0 -0 -0.8412 -4.2182 5.1687 2.6971 -4.8351 -2.5643 -0.0093531 -0.024696 0.028872 -0 0 -0 -0 0 -0 0.21548 3.3985 -5.0495 -0.080342 -2.3219 -0.77228 0.15947 -0.55247 -1.0609 -0 0 -0 1.4591e-09 -1.5078e-18 -1.1842e-07 -0 0 -0 0.21548 3.3985 -5.0495 -0.79074 -4.4254 2.2735 0.31556 -0.19779 2.4479 -0 0 -0 -0 0 3.3351e-09 -0 0 -0 
0 0.95674 0 -0 0 -0 0.24742 3.4532 -5.0404 0.0024711 1.2806 0.28145 0.0024712 1.2806 0.28145 0.0024985 1.0757 0.23641 -0 0 -0 -0.39383 -3.4579 0.31584 -2.0606 -4.5193 6.5915 -0.098735 0.039708 0.16012 -0 0 -0 -0.86072 -4.225 5.2113 2.6808 -4.859 -2.5779 -0.018461 -0.036366 0.030747 -0 0 -0 -0 0 -0 0.24742 3.4532 -5.0404 -0.10401 -2.389 -0.80572 0.15133 -0.54641 -1.0223 -0 0 -0 1.6675e-09 -1.3504e-18 -9.2802e-08 -0 0 -0 0.24742 3.4532 -5.0404 -0.82114 -4.4729 2.2542 0.32148 -0.21682 2.4456 -0 0 -0 0 0 -1.0005e-08 -0 0 -0 
0 0.95669 0 -0 0 -0 0.26958 3.4983 -5.0348 0.013356 1.2858 0.25849 0.013356 1.2858 0.25849 0.011609 1.0801 0.21715 -0 0 -0 -0.43211 -3.4701 0.33731 -2.0163 -4.5505 6.5034 -0.20537 0.060852 0.25525 -0 0 -0 -0.8651 -4.2243 5.237 2.6712 -4.8705 -2.5848 -0.032773 -0.047053 0.045036 -0 0 -0 -0 0 -0 0.26958 3.4983 -5.0348 -0.11368 -2.4516 -0.81103 0.13028 -0.53203 -1.0093 -0 0 -0 -0 0 1.4884e-07 -0 0 -0 0.26958 3.4983 -5.0348 -0.84276 -4.4899 2.2368 0.3167 -0.26417 2.4347 -0 0 -0 0 0 -6.6701e-09 -0 0 -0 
0 0.95664 0 -0 0 -0 0.28718 3.5436 -5.0251 0.064495 1.3483 0.21126 0.064495 1.3483 0.21126 0.054508 1.1325 0.17756 -0 0 -0 -0.58639 -3.6368 0.41855 -2.3878 -4.5154 6.8905 0.039752 -0.0093224 -0.042102 -0 0 -0 -0.97545 -4.3618 5.3509 2.6659 -4.8963 -2.6283 0.01028 0.048279 0.00011842 -0 0 -0 -0 0 -0 0.28718 3.5436 -5.0251 -0.10938 -2.5146 -0.81572 0.096942 -0.53116 -0.99975 -0 0 -0 0 0 -1.6154e-07 -0 0 -0 0.28718 3.5436 -5.0251 -0.8614 -4.5188 2.2106 0.32156 -0.29146 2.44 -0 0 -0 -0 0 6.6701e-09 -0 0 -0 
0 0.95658 0 -0 0 -0 0.3282 3.6083 -5.0235 0.056533 1.3703 0.20893 0.056533 1.3703 0.20893 0.047822 1.151 0.17559 -0 0 -0 -0.56833 -3.7023 0.38075 -2.7083 -4.4995 7.2058 0.15705 -0.014652 -0.16484 -0 0 -0 -0.95955 -4.4024 5.3744 2.6977 -4.8318 -2.6936 -0.0032353 -0.053748 0.010092 -0 0 -0 -0 0 -0 0.3282 3.6083 -5.0235 -0.13314 -2.5897 -0.82233 0.073873 -0.53694 -0.98436 -0 0 -0 -0 0 1.39e-07 -0 0 -0 0.3282 3.6083 -5.0235 -0.89408 -4.5643 2.1972 0.31855 -0.32398 2.4373 -0 0 -0 0 0 -5.8363e-09 -0 0 -0 
1.8918e-05 0.95651 -5.323e-05 -0 0 -0 0.37503 3.6657 -5.0302 0.057648 1.3818 0.19164 0.057648 1.3818 0.19164 0.048734 1.1607 0.16107 -0 0 -0 -0.53973 -3.7192 0.34526 -2.7496 -4.488 7.2651 -0.035839 -0.08849 0.028554 -0 0 -0 -0.97145 -4.4319 5.4301 2.7199 -4.8487 -2.7233 -0.057011 -0.047703 0.033043 -0 0 -0 -0 0 -0 0.37503 3.6657 -5.0302 -0.1674 -2.6598 -0.83979 0.047849 -0.52987 -0.95382 -0 0 -0 -0 0 1.3911e-07 -0 0 -0 0.37503 3.6657 -5.0302 -0.92596 -4.6026 2.1953 0.29531 -0.35608 2.4283 -0 0 -0 0 0 -1.0005e-08 -0 0 -0 
0.00013393 0.95644 -0.00025498 -0 0 -0 0.42516 3.7237 -5.036 0.057348 1.3901 0.17788 0.057348 1.3901 0.17788 0.048461 1.1677 0.14951 -0 0 -0 -0.49671 -3.6977 0.33157 -2.8546 -4.6049 7.3359 0.023334 0.0045723 -0.020431 -0 0 -0 -0.96872 -4.4733 5.4683 2.7239 -4.8719 -2.7502 -0.051823 -0.019097 0.036017 -0 0 -0 -0 0 -0 0.42516 3.7237 -5.036 -0.20391 -2.7323 -0.84984 0.029051 -0.51789 -0.94201 -0 0 -0 0 0 -8.9473e-08 -0 0 -0 0.42516 3.7237 -5.036 -0.9689 -4.6419 2.1912 0.27994 -0.37439 2.418 -0 0 -0 -0 0 1.2506e-08 -0 0 -0 
0.00049892 0.95631 -0.00081419 -0 0 -0 0.48567 3.7901 -5.0366 0.058609 1.374 0.15859 0.058609 1.374 0.15859 0.049486 1.1541 0.1333 -0 0 -0 -0.50421 -3.673 0.40504 -2.9378 -4.6599 7.267 0.032752 0.0021993 0.040881 -0 0 -0 -0.97714 -4.4411 5.5395 2.7226 -4.9206 -2.8111 -0.051823 -0.0082322 0.047654 -0 0 -0 -0 0 -0 0.48567 3.7901 -5.0366 -0.25439 -2.8194 -0.84592 0.012628 -0.4989 -0.93962 -0 0 -0 0 0 -3.8796e-08 -0 0 -0 0.48567 3.7901 -5.0366 -1.0325 -4.7022 2.1636 0.27245 -0.375 2.4215 -0 0 -0 0 0 -4.1688e-09 -0 0 -0 
0.0012708 0.956 -0.0019779 -0 0 -0 0.50943 3.8868 -5.0462 0.075416 1.3457 0.15386 0.075416 1.3457 0.15386 0.06359 1.1303 0.12936 -0 0 -0 -0.52119 -3.6401 0.48209 -3.0555 -4.6684 7.1821 -0.0097773 0.094562 0.026038 -0 0 -0 -0.99184 -4.4227 5.5794 2.7041 -4.9422 -2.8559 -0.033194 -0.012243 0.031208 -0 0 -0 -0 0 -0 0.50943 3.8868 -5.0462 -0.23954 -2.9741 -0.83642 -0.014245 -0.47514 -0.93148 -0 0 -0 -0 0 1.5128e-07 -0 0 -0 0.50943 3.8868 -5.0462 -1.0504 -4.7865 2.1482 0.26616 -0.39888 2.4358 -0 0 -0 0 0 -1.6675e-09 -0 0 -0 
0.0024314 0.95524 -0.0039315 -0 0 -0 0.44496 4.32 -5.0605 0.12884 1.1629 0.15073 0.12884 1.1629 0.15073 0.10843 0.97683 0.12679 -0 0 -0 -0.22802 -3.4137 0.57927 -3.5132 -4.5715 7.1504 -0.059841 -0.0082984 0.10835 -0 0 -0 -1.0121 -4.3099 5.4963 2.6638 -4.9361 -2.762 0.087256 -0.039721 -0.2839 -0 0 -0 -0 0 -0 0.44496 4.32 -5.0605 0.025737 -3.7092 -0.99589 -0.1702 -0.25592 -0.82445 -0 0 -0 0 0 -8.718e-08 -0 0 -0 0.44496 4.32 -5.0605 -0.9436 -5.2952 2.2008 0.39446 -0.24831 2.4989 -0 0 -0 0 0 -4.1688e-10 -0 0 -0 
0.0035029 0.95354 -0.0063923 -0 0 -0 0.24962 5.4807 -4.7343 0.18574 0.80629 0.050896 0.18574 0.80629 0.050896 0.15607 0.67728 0.042927 -0 0 -0 0.75589 -2.9977 0.56525 -4.5888 -4.9186 7.3927 0.24812 -0.049748 0.26993 -0 0 -0 -0.97968 -4.1551 5.1012 2.9291 -5.2801 -2.9481 0.232 0.063669 -0.26791 -0 0 -0 -0 0 -0 0.24962 5.4807 -4.7343 0.79634 -6.6175 -1.9485 -1.1105 1.9421 -0.55723 -0 0 -0 2.5345e-08 -0.28393 -5.3918e-07 -0 0 -0 0.24962 5.4807 -4.7343 -0.31955 -7.1295 2.3971 0.093041 1.4903 1.5001 -0 0 -0 -0 0 2.5117e-08 -0 0 -0 
0.00334 0.95038 -0.0086589 -0 0 -0 -0.14917 7.626 -3.4942 0.69224 0.62911 -0.079291 0.69224 0.62912 -0.079291 0.58142 0.52852 -0.066093 -0 0 -0 0.64072 -3.4401 -0.43749 -5.0743 -5.9763 8.3742 0.37938 -0.55618 1.0673 -0 0 -0 -2.4799 -4.2521 4.686 3.968 -6.8334 -4.3904 0.34041 0.13889 0.423 -0 0 -0 -0 0 -0 -0.14917 7.626 -3.4942 2.0485 -12.487 -3.9065 -3.2821 7.3799 -0.542 -0 0 -0 7.1248e-09 -2.0517 3.979e-07 -0 0 -0 -0.14917 7.626 -3.4942 1.0126 -12.282 2.6037 -0.28381 7.8344 -0.26472 -0 0 -0 6.2032e-09 -1.9262 -2.7831e-08 -0 0 -0 
0.00036921 0.94533 -0.0096175 -0 0 -0 -0.91575 9.4907 -1.0444 1.3957 1.6383 -0.34019 1.3957 1.6383 -0.34019 1.1717 1.3767 -0.28307 -0 0 -0 0.15572 -6.0516 -1.4326 -4.5532 -8.9647 10.863 0.53334 -0.52312 1.1104 -0 0 -0 -5.2578 -5.9219 6.2 6.1443 -10.091 -7.6711 0.045548 0.1323 1.4456 -0 0 -0 -0 0 -0 -0.91575 9.4907 -1.0444 2.9286 -19.536 -7.3382 -5.6418 14.759 0.060711 -0 0 -0 1.6578e-07 -4.474 -1.2243e-06 -0 0 -0 -0.91575 9.4907 -1.0444 2.2197 -20.551 2.3208 -0.31053 19.99 -0.11384 -0 0 -0 2.4559e-08 -5.6214 -4.3872e-08 -0 0 -0 
-0.0065519 0.93851 -0.0082889 -0 0 -0 -3.0793 9.6776 3.959 2.0955 3.6608 -0.99723 2.0955 3.6608 -0.99723 1.7555 3.0776 -0.82847 -0 0 -0 1.1735 -10.459 -2.9391 -2.6562 -12.355 15.533 0.99989 -0.44426 1.1476 -0 0 -0 -7.7566 -9.1653 8.273 9.0571 -13.485 -10.018 -0.31611 0.22685 1.8623 -0 0 -0 -0 0 -0 -3.0793 9.6776 3.959 4.3559 -25.077 -12.869 -8.4527 22.202 1.961 -0 0 -0 -2.1644e-07 -7.3567 -3.9815e-08 -0 0 -0 -3.0793 9.6776 3.959 4.8119 -27.01 1.8163 -3.0217 32.153 4.1581 -0 0 -0 -2.6044e-08 -4.1715 -7.1512e-07 -0 0 -0 
-0.017455 0.93069 -0.0044728 -0 0 -0 -3.0293 10.376 8.9604 1.0372 4.8387 -0.89325 1.0372 4.8387 -0.89325 0.86579 4.0656 -0.74412 -0 0 -0 4.2661 -14.274 -5.3024 1.8153 -14.529 21.879 -0.023038 -1.2002 1.6397 -0 0 -0 -8.4289 -11.781 8.8262 11.966 -15.25 -9.7704 -0.012542 0.0015462 0.80208 -0 0 -0 -0 0 -0 -3.0293 10.376 8.9604 3.6366 -30.107 -15.887 -10.979 27.695 3.0181 -0 0 -0 -1.7198e-08 -9.3034 -2.1137e-07 -0 0 -0 -3.0293 10.376 8.9604 5.4098 -30.888 5.48 -4.0525 40.053 6.9504 -0 0 -0 -1.6761e-07 -7.4494 7.1098e-07 -0 0 -0 
-0.031309 0.92324 0.000846 -0 0 -0 -2.1289 13.274 14.547 -0.27469 4.5399 -0.13572 -0.27469 4.5399 -0.13572 -0.23138 3.8135 -0.11543 -0 0 -0 4.9159 -16.645 -6.2215 6.9943 -18.276 27.099 -0.66165 -0.35621 0.31811 -0 0 -0 -8.9912 -12.858 6.8814 13.798 -15.765 -8.1174 0.2591 -0.0022484 -0.574 -0 0 -0 -0 0 -0 -2.1289 13.274 14.547 0.50085 -36.516 -17.018 -11.503 32.354 1.5925 -0 0 -0 1.2334e-07 -10.351 1.7861e-07 -0 0 -0 -2.1289 13.274 14.547 3.3134 -33.397 11.63 2.1134 42.456 -2.8007 -0 0 -0 -4.7797e-07 -18.66 -1.5927e-06 -0 0 -0 
-0.04677 0.91757 0.0057377 -0 0 -0 -3.5058 18.006 23.008 -0.86786 3.0881 -0.30826 -0.86786 3.0881 -0.30826 -0.73 2.5937 -0.26205 -0 0 -0 4.1935 -17.482 -2.4718 9.3908 -24.309 27.944 -0.36444 1.694 -1.7961 -0 0 -0 -9.5485 -13.468 5.6099 15.2 -15.531 -7.9468 -0.097896 -0.037491 0.078835 -0 0 -0 -0 0 -0 -3.5058 18.006 23.008 -4.19 -43.22 -19.992 -9.5581 33.595 -1.9281 -0 0 -0 1.1224e-07 -6.6576 9.1716e-08 -0 0 -0 -3.5058 18.006 23.008 -0.18908 -38.67 10.84 6.3185 43.939 -10.25 -0 0 -0 4.2867e-07 -22.896 -3.3988e-08 -0 0 -0 
-0.062783 0.91448 0.0082503 -0 0 -0 -5.7189 21.284 32.453 -1.4266 2.3343 -0.37797 -1.4266 2.3343 -0.37798 -1.1993 1.9602 -0.32138 -0 0 -0 3.8215 -17.613 0.15318 7.8366 -29.261 24.601 -0.16009 2.4097 -1.7646 -0 0 -0 -9.2791 -14.863 5.0789 14.914 -15.434 -9.4718 -0.19098 -0.304 0.97375 -0 0 -0 -0 0 -0 -5.7189 21.284 32.453 -9.0738 -47.347 -22.635 -6.5349 30.298 -7.8497 -0 0 -0 -0 0 7.0036e-08 -0 0 -0 -5.7189 21.284 32.453 -3.9999 -42.802 5.1888 6.2708 45.812 -11.729 -0 0 -0 -6.7293e-07 -23.965 -1.1145e-06 -0 0 -0 
